<?xml version="1.0" encoding="UTF-8" standalone="no"?>
<!DOCTYPE svg PUBLIC "-//W3C//DTD SVG 1.1//EN" "http://www.w3.org/Graphics/SVG/1.1/DTD/svg11.dtd">
<!-- Created with Vectornator (http://vectornator.io/) -->
<svg height="100%" stroke-miterlimit="10" style="fill-rule:nonzero;clip-rule:evenodd;stroke-linecap:round;stroke-linejoin:round;" version="1.1" viewBox="0 0 225 160" width="100%" xml:space="preserve" xmlns="http://www.w3.org/2000/svg" xmlns:vectornator="http://vectornator.io" xmlns:xlink="http://www.w3.org/1999/xlink">
<defs/>
<clipPath id="ArtboardFrame">
<rect height="160" width="225" x="0" y="0"/>
</clipPath>
<g clip-path="url(#ArtboardFrame)" id="surface568315" vectornator:layerName="surface568315">
<g opacity="1">
<g opacity="1">
<g opacity="1">
<g opacity="1">
<g opacity="1">
<path d="M208.11 20.2278C208.11 19.1232 209.005 18.2278 210.11 18.2278C211.215 18.2278 212.11 19.1232 212.11 20.2278C212.11 21.3324 211.215 22.2278 210.11 22.2278C209.005 22.2278 208.11 21.3324 208.11 20.2278Z" fill="#969696" fill-rule="nonzero" opacity="1" stroke="#969696" stroke-linecap="round" stroke-linejoin="round" stroke-width="2"/>
<path d="M163.113 20.2278C163.113 19.1232 164.009 18.2278 165.113 18.2278C166.218 18.2278 167.113 19.1232 167.113 20.2278C167.113 21.3324 166.218 22.2278 165.113 22.2278C164.009 22.2278 163.113 21.3324 163.113 20.2278Z" fill="#969696" fill-rule="nonzero" opacity="1" stroke="#969696" stroke-linecap="round" stroke-linejoin="round" stroke-width="2"/>
<path d="M192.613 20.2278C192.613 18.8471 193.732 17.7278 195.113 17.7278C196.494 17.7278 197.613 18.8471 197.613 20.2278C197.613 21.6085 196.494 22.7278 195.113 22.7278C193.732 22.7278 192.613 21.6085 192.613 20.2278Z" fill="#006fff" fill-rule="nonzero" opacity="1" stroke="#006fff" stroke-linecap="round" stroke-linejoin="round" stroke-width="1"/>
<path d="M147.613 20.2278C147.613 18.8471 148.732 17.7278 150.113 17.7278C151.494 17.7278 152.613 18.8471 152.613 20.2278C152.613 21.6085 151.494 22.7278 150.113 22.7278C148.732 22.7278 147.613 21.6085 147.613 20.2278Z" fill="#006fff" fill-rule="nonzero" opacity="1" stroke="#006fff" stroke-linecap="round" stroke-linejoin="round" stroke-width="1"/>
<path d="M132.613 20.2278C132.613 18.8471 133.732 17.7278 135.113 17.7278C136.494 17.7278 137.613 18.8471 137.613 20.2278C137.613 21.6085 136.494 22.7278 135.113 22.7278C133.732 22.7278 132.613 21.6085 132.613 20.2278Z" fill="#006fff" fill-rule="nonzero" opacity="1" stroke="#006fff" stroke-linecap="round" stroke-linejoin="round" stroke-width="1"/>
<path d="M178.113 20.2278C178.113 19.1232 179.009 18.2278 180.113 18.2278C181.218 18.2278 182.113 19.1232 182.113 20.2278C182.113 21.3324 181.218 22.2278 180.113 22.2278C179.009 22.2278 178.113 21.3324 178.113 20.2278Z" fill="#969696" fill-rule="nonzero" opacity="1" stroke="#969696" stroke-linecap="round" stroke-linejoin="round" stroke-width="2"/>
</g>
</g>
<g opacity="1">
<path d="M129.349 39.8374C129.439 45.6331 136.774 49.1648 141.674 39.981C144.238 35.1747 149.514 34.9438 157.591 34.6888C165.022 34.4541 171.092 34.5686 172.61 39.3039C174.566 45.4053 179.418 46.9938 186.455 46.7351C196.723 46.3575 201.359 42.2655 201.005 39.3039C200.074 31.5062 164.913 31.227 157.693 31.2345C145.89 31.2468 129.259 34.0723 129.349 39.8374Z" fill="none" opacity="1" stroke="#fc1ad6" stroke-linecap="round" stroke-linejoin="round" stroke-width="1"/>
<g opacity="1">
<path d="M208.11 40.2278C208.11 39.1232 209.005 38.2278 210.11 38.2278C211.215 38.2278 212.11 39.1232 212.11 40.2278C212.11 41.3324 211.215 42.2278 210.11 42.2278C209.005 42.2278 208.11 41.3324 208.11 40.2278Z" fill="#969696" fill-rule="nonzero" opacity="1" stroke="#969696" stroke-linecap="round" stroke-linejoin="round" stroke-width="2"/>
<path d="M163.113 40.2278C163.113 39.1232 164.009 38.2278 165.113 38.2278C166.218 38.2278 167.113 39.1232 167.113 40.2278C167.113 41.3324 166.218 42.2278 165.113 42.2278C164.009 42.2278 163.113 41.3324 163.113 40.2278Z" fill="#969696" fill-rule="nonzero" opacity="1" stroke="#969696" stroke-linecap="round" stroke-linejoin="round" stroke-width="2"/>
<path d="M192.613 40.2278C192.613 38.8471 193.732 37.7278 195.113 37.7278C196.494 37.7278 197.613 38.8471 197.613 40.2278C197.613 41.6085 196.494 42.7278 195.113 42.7278C193.732 42.7278 192.613 41.6085 192.613 40.2278Z" fill="#006fff" fill-rule="nonzero" opacity="1" stroke="#006fff" stroke-linecap="round" stroke-linejoin="round" stroke-width="1"/>
<path d="M147.613 40.2278C147.613 38.8471 148.732 37.7278 150.113 37.7278C151.494 37.7278 152.613 38.8471 152.613 40.2278C152.613 41.6085 151.494 42.7278 150.113 42.7278C148.732 42.7278 147.613 41.6085 147.613 40.2278Z" fill="#006fff" fill-rule="nonzero" opacity="1" stroke="#006fff" stroke-linecap="round" stroke-linejoin="round" stroke-width="1"/>
<path d="M132.613 40.2278C132.613 38.8471 133.732 37.7278 135.113 37.7278C136.494 37.7278 137.613 38.8471 137.613 40.2278C137.613 41.6085 136.494 42.7278 135.113 42.7278C133.732 42.7278 132.613 41.6085 132.613 40.2278Z" fill="#006fff" fill-rule="nonzero" opacity="1" stroke="#006fff" stroke-linecap="round" stroke-linejoin="round" stroke-width="1"/>
<path d="M178.113 40.2278C178.113 39.1232 179.009 38.2278 180.113 38.2278C181.218 38.2278 182.113 39.1232 182.113 40.2278C182.113 41.3324 181.218 42.2278 180.113 42.2278C179.009 42.2278 178.113 41.3324 178.113 40.2278Z" fill="#969696" fill-rule="nonzero" opacity="1" stroke="#969696" stroke-linecap="round" stroke-linejoin="round" stroke-width="2"/>
</g>
</g>
<g opacity="1">
<path d="M158.457 79.9097C158.362 75.4329 169.249 75.0205 179.81 75.0205C190.372 75.0205 201.715 75.0763 201.862 80.0712C201.985 84.2617 192.715 85.8087 180.166 85.7231C170.013 85.6539 158.58 85.6986 158.457 79.9097Z" fill="none" opacity="1" stroke="#fc1ad6" stroke-linecap="round" stroke-linejoin="round" stroke-width="1"/>
<path d="M187.214 85.7894" fill="#8b8b8b" fill-rule="nonzero" opacity="1" stroke="#969696" stroke-linecap="round" stroke-linejoin="round" stroke-width="2"/>
<g opacity="1">
<path d="M208.11 80.2278C208.11 79.1232 209.005 78.2278 210.11 78.2278C211.215 78.2278 212.11 79.1232 212.11 80.2278C212.11 81.3324 211.215 82.2278 210.11 82.2278C209.005 82.2278 208.11 81.3324 208.11 80.2278Z" fill="#969696" fill-rule="nonzero" opacity="1" stroke="#969696" stroke-linecap="round" stroke-linejoin="round" stroke-width="2"/>
<path d="M163.113 80.2278C163.113 79.1232 164.009 78.2278 165.113 78.2278C166.218 78.2278 167.113 79.1232 167.113 80.2278C167.113 81.3324 166.218 82.2278 165.113 82.2278C164.009 82.2278 163.113 81.3324 163.113 80.2278Z" fill="#969696" fill-rule="nonzero" opacity="1" stroke="#969696" stroke-linecap="round" stroke-linejoin="round" stroke-width="2"/>
<path d="M192.613 80.2278C192.613 78.8471 193.732 77.7278 195.113 77.7278C196.494 77.7278 197.613 78.8471 197.613 80.2278C197.613 81.6085 196.494 82.7278 195.113 82.7278C193.732 82.7278 192.613 81.6085 192.613 80.2278Z" fill="#006fff" fill-rule="nonzero" opacity="1" stroke="#006fff" stroke-linecap="round" stroke-linejoin="round" stroke-width="1"/>
<path d="M147.613 80.2278C147.613 78.8471 148.732 77.7278 150.113 77.7278C151.494 77.7278 152.613 78.8471 152.613 80.2278C152.613 81.6085 151.494 82.7278 150.113 82.7278C148.732 82.7278 147.613 81.6085 147.613 80.2278Z" fill="#006fff" fill-rule="nonzero" opacity="1" stroke="#006fff" stroke-linecap="round" stroke-linejoin="round" stroke-width="1"/>
<path d="M132.613 80.2278C132.613 78.8471 133.732 77.7278 135.113 77.7278C136.494 77.7278 137.613 78.8471 137.613 80.2278C137.613 81.6085 136.494 82.7278 135.113 82.7278C133.732 82.7278 132.613 81.6085 132.613 80.2278Z" fill="#006fff" fill-rule="nonzero" opacity="1" stroke="#006fff" stroke-linecap="round" stroke-linejoin="round" stroke-width="1"/>
<path d="M178.113 80.2278C178.113 79.1232 179.009 78.2278 180.113 78.2278C181.218 78.2278 182.113 79.1232 182.113 80.2278C182.113 81.3324 181.218 82.2278 180.113 82.2278C179.009 82.2278 178.113 81.3324 178.113 80.2278Z" fill="#969696" fill-rule="nonzero" opacity="1" stroke="#969696" stroke-linecap="round" stroke-linejoin="round" stroke-width="2"/>
</g>
</g>
<g opacity="1">
<path d="M135.161 60.0557C139.322 53.9737 155.151 51.7968 170.181 52.6932C187.869 53.7483 202.245 54.5375 201.308 60.412C200.692 64.2758 195.989 66.0118 189.045 66.4038C183.398 66.7225 176.445 67.4117 173.029 60.524C169.683 53.7762 154.751 53.2054 150.27 60.1197" fill="none" opacity="1" stroke="#fc1ad6" stroke-linecap="round" stroke-linejoin="round" stroke-width="1"/>
<g opacity="1">
<path d="M208.11 60.2278C208.11 59.1232 209.005 58.2278 210.11 58.2278C211.215 58.2278 212.11 59.1232 212.11 60.2278C212.11 61.3324 211.215 62.2278 210.11 62.2278C209.005 62.2278 208.11 61.3324 208.11 60.2278Z" fill="#969696" fill-rule="nonzero" opacity="1" stroke="#969696" stroke-linecap="round" stroke-linejoin="round" stroke-width="2"/>
<path d="M163.113 60.2278C163.113 59.1232 164.009 58.2278 165.113 58.2278C166.218 58.2278 167.113 59.1232 167.113 60.2278C167.113 61.3324 166.218 62.2278 165.113 62.2278C164.009 62.2278 163.113 61.3324 163.113 60.2278Z" fill="#969696" fill-rule="nonzero" opacity="1" stroke="#969696" stroke-linecap="round" stroke-linejoin="round" stroke-width="2"/>
<path d="M192.613 60.2278C192.613 58.8471 193.732 57.7278 195.113 57.7278C196.494 57.7278 197.613 58.8471 197.613 60.2278C197.613 61.6085 196.494 62.7278 195.113 62.7278C193.732 62.7278 192.613 61.6085 192.613 60.2278Z" fill="#006fff" fill-rule="nonzero" opacity="1" stroke="#006fff" stroke-linecap="round" stroke-linejoin="round" stroke-width="1"/>
<path d="M147.613 60.2278C147.613 58.8471 148.732 57.7278 150.113 57.7278C151.494 57.7278 152.613 58.8471 152.613 60.2278C152.613 61.6085 151.494 62.7278 150.113 62.7278C148.732 62.7278 147.613 61.6085 147.613 60.2278Z" fill="#006fff" fill-rule="nonzero" opacity="1" stroke="#006fff" stroke-linecap="round" stroke-linejoin="round" stroke-width="1"/>
<path d="M132.613 60.2278C132.613 58.8471 133.732 57.7278 135.113 57.7278C136.494 57.7278 137.613 58.8471 137.613 60.2278C137.613 61.6085 136.494 62.7278 135.113 62.7278C133.732 62.7278 132.613 61.6085 132.613 60.2278Z" fill="#006fff" fill-rule="nonzero" opacity="1" stroke="#006fff" stroke-linecap="round" stroke-linejoin="round" stroke-width="1"/>
<path d="M178.113 60.2278C178.113 59.1232 179.009 58.2278 180.113 58.2278C181.218 58.2278 182.113 59.1232 182.113 60.2278C182.113 61.3324 181.218 62.2278 180.113 62.2278C179.009 62.2278 178.113 61.3324 178.113 60.2278Z" fill="#969696" fill-rule="nonzero" opacity="1" stroke="#969696" stroke-linecap="round" stroke-linejoin="round" stroke-width="2"/>
</g>
</g>
<g opacity="1">
<path d="M195.217 100.14C175.201 110.899 156.85 104.809 150.273 100.1" fill="none" opacity="1" stroke="#fc1ad6" stroke-linecap="round" stroke-linejoin="round" stroke-width="1"/>
<g opacity="1">
<path d="M208.11 100.228C208.11 99.1232 209.005 98.2278 210.11 98.2278C211.215 98.2278 212.11 99.1232 212.11 100.228C212.11 101.332 211.215 102.228 210.11 102.228C209.005 102.228 208.11 101.332 208.11 100.228Z" fill="#969696" fill-rule="nonzero" opacity="1" stroke="#969696" stroke-linecap="round" stroke-linejoin="round" stroke-width="2"/>
<path d="M163.113 100.228C163.113 99.1232 164.009 98.2278 165.113 98.2278C166.218 98.2278 167.113 99.1232 167.113 100.228C167.113 101.332 166.218 102.228 165.113 102.228C164.009 102.228 163.113 101.332 163.113 100.228Z" fill="#969696" fill-rule="nonzero" opacity="1" stroke="#969696" stroke-linecap="round" stroke-linejoin="round" stroke-width="2"/>
<path d="M192.613 100.228C192.613 98.8471 193.732 97.7278 195.113 97.7278C196.494 97.7278 197.613 98.8471 197.613 100.228C197.613 101.609 196.494 102.728 195.113 102.728C193.732 102.728 192.613 101.609 192.613 100.228Z" fill="#006fff" fill-rule="nonzero" opacity="1" stroke="#006fff" stroke-linecap="round" stroke-linejoin="round" stroke-width="1"/>
<path d="M147.613 100.228C147.613 98.8471 148.732 97.7278 150.113 97.7278C151.494 97.7278 152.613 98.8471 152.613 100.228C152.613 101.609 151.494 102.728 150.113 102.728C148.732 102.728 147.613 101.609 147.613 100.228Z" fill="#006fff" fill-rule="nonzero" opacity="1" stroke="#006fff" stroke-linecap="round" stroke-linejoin="round" stroke-width="1"/>
<path d="M132.613 100.228C132.613 98.8471 133.732 97.7278 135.113 97.7278C136.494 97.7278 137.613 98.8471 137.613 100.228C137.613 101.609 136.494 102.728 135.113 102.728C133.732 102.728 132.613 101.609 132.613 100.228Z" fill="#006fff" fill-rule="nonzero" opacity="1" stroke="#006fff" stroke-linecap="round" stroke-linejoin="round" stroke-width="1"/>
<path d="M178.113 100.228C178.113 99.1232 179.009 98.2278 180.113 98.2278C181.218 98.2278 182.113 99.1232 182.113 100.228C182.113 101.332 181.218 102.228 180.113 102.228C179.009 102.228 178.113 101.332 178.113 100.228Z" fill="#969696" fill-rule="nonzero" opacity="1" stroke="#969696" stroke-linecap="round" stroke-linejoin="round" stroke-width="2"/>
</g>
</g>
<g opacity="1">
<path d="M135.217 120.116C146.715 131.779 172.008 130.129 182.235 125.951C187.475 123.809 187.488 118.022 183.445 115.284C180.036 112.974 175.967 115.723 173.657 119.352C167.974 128.283 156.612 126.94 150.271 120.181" fill="none" opacity="1" stroke="#fc1ad6" stroke-linecap="round" stroke-linejoin="round" stroke-width="1"/>
<g opacity="1">
<path d="M208.11 120.228C208.11 119.123 209.005 118.228 210.11 118.228C211.215 118.228 212.11 119.123 212.11 120.228C212.11 121.332 211.215 122.228 210.11 122.228C209.005 122.228 208.11 121.332 208.11 120.228Z" fill="#969696" fill-rule="nonzero" opacity="1" stroke="#969696" stroke-linecap="round" stroke-linejoin="round" stroke-width="2"/>
<path d="M163.113 120.228C163.113 119.123 164.009 118.228 165.113 118.228C166.218 118.228 167.113 119.123 167.113 120.228C167.113 121.332 166.218 122.228 165.113 122.228C164.009 122.228 163.113 121.332 163.113 120.228Z" fill="#969696" fill-rule="nonzero" opacity="1" stroke="#969696" stroke-linecap="round" stroke-linejoin="round" stroke-width="2"/>
<path d="M192.613 120.228C192.613 118.847 193.732 117.728 195.113 117.728C196.494 117.728 197.613 118.847 197.613 120.228C197.613 121.609 196.494 122.728 195.113 122.728C193.732 122.728 192.613 121.609 192.613 120.228Z" fill="#006fff" fill-rule="nonzero" opacity="1" stroke="#006fff" stroke-linecap="round" stroke-linejoin="round" stroke-width="1"/>
<path d="M147.613 120.228C147.613 118.847 148.732 117.728 150.113 117.728C151.494 117.728 152.613 118.847 152.613 120.228C152.613 121.609 151.494 122.728 150.113 122.728C148.732 122.728 147.613 121.609 147.613 120.228Z" fill="#006fff" fill-rule="nonzero" opacity="1" stroke="#006fff" stroke-linecap="round" stroke-linejoin="round" stroke-width="1"/>
<path d="M132.613 120.228C132.613 118.847 133.732 117.728 135.113 117.728C136.494 117.728 137.613 118.847 137.613 120.228C137.613 121.609 136.494 122.728 135.113 122.728C133.732 122.728 132.613 121.609 132.613 120.228Z" fill="#006fff" fill-rule="nonzero" opacity="1" stroke="#006fff" stroke-linecap="round" stroke-linejoin="round" stroke-width="1"/>
<path d="M178.113 120.228C178.113 119.123 179.009 118.228 180.113 118.228C181.218 118.228 182.113 119.123 182.113 120.228C182.113 121.332 181.218 122.228 180.113 122.228C179.009 122.228 178.113 121.332 178.113 120.228Z" fill="#969696" fill-rule="nonzero" opacity="1" stroke="#969696" stroke-linecap="round" stroke-linejoin="round" stroke-width="2"/>
</g>
</g>
<g opacity="1">
<path d="M135.283 140.443C143.555 149.126 166.331 150.789 172.999 140.066C178.994 130.425 192.265 135.079 195.163 140.346" fill="none" opacity="1" stroke="#fc1ad6" stroke-linecap="round" stroke-linejoin="round" stroke-width="1"/>
<g opacity="1">
<path d="M208.11 140.228C208.11 139.123 209.005 138.228 210.11 138.228C211.215 138.228 212.11 139.123 212.11 140.228C212.11 141.332 211.215 142.228 210.11 142.228C209.005 142.228 208.11 141.332 208.11 140.228Z" fill="#969696" fill-rule="nonzero" opacity="1" stroke="#969696" stroke-linecap="round" stroke-linejoin="round" stroke-width="2"/>
<path d="M163.113 140.228C163.113 139.123 164.009 138.228 165.113 138.228C166.218 138.228 167.113 139.123 167.113 140.228C167.113 141.332 166.218 142.228 165.113 142.228C164.009 142.228 163.113 141.332 163.113 140.228Z" fill="#969696" fill-rule="nonzero" opacity="1" stroke="#969696" stroke-linecap="round" stroke-linejoin="round" stroke-width="2"/>
<path d="M192.613 140.228C192.613 138.847 193.732 137.728 195.113 137.728C196.494 137.728 197.613 138.847 197.613 140.228C197.613 141.609 196.494 142.728 195.113 142.728C193.732 142.728 192.613 141.609 192.613 140.228Z" fill="#006fff" fill-rule="nonzero" opacity="1" stroke="#006fff" stroke-linecap="round" stroke-linejoin="round" stroke-width="1"/>
<path d="M147.613 140.228C147.613 138.847 148.732 137.728 150.113 137.728C151.494 137.728 152.613 138.847 152.613 140.228C152.613 141.609 151.494 142.728 150.113 142.728C148.732 142.728 147.613 141.609 147.613 140.228Z" fill="#006fff" fill-rule="nonzero" opacity="1" stroke="#006fff" stroke-linecap="round" stroke-linejoin="round" stroke-width="1"/>
<path d="M132.613 140.228C132.613 138.847 133.732 137.728 135.113 137.728C136.494 137.728 137.613 138.847 137.613 140.228C137.613 141.609 136.494 142.728 135.113 142.728C133.732 142.728 132.613 141.609 132.613 140.228Z" fill="#006fff" fill-rule="nonzero" opacity="1" stroke="#006fff" stroke-linecap="round" stroke-linejoin="round" stroke-width="1"/>
<path d="M178.113 140.228C178.113 139.123 179.009 138.228 180.113 138.228C181.218 138.228 182.113 139.123 182.113 140.228C182.113 141.332 181.218 142.228 180.113 142.228C179.009 142.228 178.113 141.332 178.113 140.228Z" fill="#969696" fill-rule="nonzero" opacity="1" stroke="#969696" stroke-linecap="round" stroke-linejoin="round" stroke-width="2"/>
</g>
</g>
</g>
<g opacity="1">
<g opacity="1">
<g opacity="1">
<path d="M88.249 79.9968C88.249 78.8923 89.1444 77.9968 90.249 77.9968C91.3535 77.9968 92.249 78.8923 92.249 79.9968C92.249 81.1014 91.3535 81.9968 90.249 81.9968C89.1444 81.9968 88.249 81.1014 88.249 79.9968Z" fill="#969696" fill-rule="nonzero" opacity="1" stroke="#969696" stroke-linecap="round" stroke-linejoin="round" stroke-width="2"/>
<path d="M43.25 79.9968C43.25 78.8923 44.1454 77.9968 45.25 77.9968C46.3546 77.9968 47.25 78.8923 47.25 79.9968C47.25 81.1014 46.3546 81.9968 45.25 81.9968C44.1454 81.9968 43.25 81.1014 43.25 79.9968Z" fill="#969696" fill-rule="nonzero" opacity="1" stroke="#969696" stroke-linecap="round" stroke-linejoin="round" stroke-width="2"/>
<path d="M72.75 79.9968C72.75 78.6161 73.8693 77.4968 75.25 77.4968C76.6307 77.4968 77.75 78.6161 77.75 79.9968C77.75 81.3775 76.6307 82.4968 75.25 82.4968C73.8693 82.4968 72.75 81.3775 72.75 79.9968Z" fill="#006fff" fill-rule="nonzero" opacity="1" stroke="#006fff" stroke-linecap="round" stroke-linejoin="round" stroke-width="1"/>
<path d="M27.75 79.9968C27.75 78.6161 28.8693 77.4968 30.25 77.4968C31.6307 77.4968 32.75 78.6161 32.75 79.9968C32.75 81.3775 31.6307 82.4968 30.25 82.4968C28.8693 82.4968 27.75 81.3775 27.75 79.9968Z" fill="#006fff" fill-rule="nonzero" opacity="1" stroke="#006fff" stroke-linecap="round" stroke-linejoin="round" stroke-width="1"/>
<path d="M12.75 79.9968C12.75 78.6161 13.8693 77.4968 15.25 77.4968C16.6307 77.4968 17.75 78.6161 17.75 79.9968C17.75 81.3775 16.6307 82.4968 15.25 82.4968C13.8693 82.4968 12.75 81.3775 12.75 79.9968Z" fill="#006fff" fill-rule="nonzero" opacity="1" stroke="#006fff" stroke-linecap="round" stroke-linejoin="round" stroke-width="1"/>
<path d="M58.25 79.9968C58.25 78.8923 59.1454 77.9968 60.25 77.9968C61.3546 77.9968 62.25 78.8923 62.25 79.9968C62.25 81.1014 61.3546 81.9968 60.25 81.9968C59.1454 81.9968 58.25 81.1014 58.25 79.9968Z" fill="#969696" fill-rule="nonzero" opacity="1" stroke="#969696" stroke-linecap="round" stroke-linejoin="round" stroke-width="2"/>
</g>
<path d="M85.25 79.9968C85.25 77.2354 87.4886 74.9968 90.25 74.9968C93.0114 74.9968 95.25 77.2354 95.25 79.9968C95.25 82.7583 93.0114 84.9968 90.25 84.9968C87.4886 84.9968 85.25 82.7583 85.25 79.9968Z" fill="none" opacity="1" stroke="#fc1ad6" stroke-linecap="round" stroke-linejoin="round" stroke-width="1"/>
<path d="M40.2471 79.9968C40.2471 77.2354 42.4856 74.9968 45.2471 74.9968C48.0085 74.9968 50.2471 77.2354 50.2471 79.9968C50.2471 82.7583 48.0085 84.9968 45.2471 84.9968C42.4856 84.9968 40.2471 82.7583 40.2471 79.9968Z" fill="none" opacity="1" stroke="#fc1ad6" stroke-linecap="round" stroke-linejoin="round" stroke-width="1"/>
<path d="M55.2362 79.9968C55.2362 77.2354 57.4748 74.9968 60.2362 74.9968C62.9976 74.9968 65.2362 77.2354 65.2362 79.9968C65.2362 82.7583 62.9976 84.9968 60.2362 84.9968C57.4748 84.9968 55.2362 82.7583 55.2362 79.9968Z" fill="none" opacity="1" stroke="#fc1ad6" stroke-linecap="round" stroke-linejoin="round" stroke-width="1"/>
</g>
</g>
</g>
</g>
<path d="M220 157.5C220 156.119 221.119 155 222.5 155C223.881 155 225 156.119 225 157.5C225 158.881 223.881 160 222.5 160C221.119 160 220 158.881 220 157.5Z" fill="#006fff" fill-rule="nonzero" opacity="0" stroke="#006fff" stroke-linecap="round" stroke-linejoin="round" stroke-width="1"/>
<path d="M0 2.5C0 1.11929 1.11929 0 2.5 0C3.88071 0 5 1.11929 5 2.5C5 3.88071 3.88071 5 2.5 5C1.11929 5 0 3.88071 0 2.5Z" fill="#006fff" fill-rule="nonzero" opacity="0" stroke="#006fff" stroke-linecap="round" stroke-linejoin="round" stroke-width="1"/>
<path d="M128.456 19.8985C128.467 14.6583 139.25 14.5422 149.812 14.5388C160.943 14.5351 171.721 14.8231 171.947 19.8607C172.193 25.3519 159.421 25.6423 150.455 25.6975C140.302 25.7601 128.444 25.7657 128.456 19.8985Z" fill="none" opacity="1" stroke="#fc1ad6" stroke-linecap="round" stroke-linejoin="round" stroke-width="1"/>
</g>
</svg>
