<svg xmlns="http://www.w3.org/2000/svg" viewBox="0 0 415.5 183.408211105" width="831" height="366.81642221" role="img">
<title>Optional wider spacing and taller body</title>
<path class="surface-outline" d="M 18.75 91.7041055525 C 18.75 62.9041055525 39.75 38.9041055525 67.75 38.9041055525" fill="none" stroke="#000000" stroke-width="1.5" stroke-linecap="round" stroke-linejoin="round"/>
<path class="surface-outline" d="M 18.75 91.7041055525 C 18.75 120.504105553 39.75 144.504105553 67.75 144.504105553" fill="none" stroke="#000000" stroke-width="1.5" stroke-linecap="round" stroke-linejoin="round"/>
<path class="surface-outline" d="M 67.75 38.9041055525 C 79.4673333333 38.9703921811 91.1846666667 39.0283569969 102.902 39.078 C 110.5052 39.1102125923 111.35 31.95 111.35 25.35" fill="none" stroke="#000000" stroke-width="1.5" stroke-linecap="round" stroke-linejoin="round"/>
<path class="surface-outline" d="M 67.75 144.504105553 C 79.4673333333 144.437818924 91.1846666667 144.379854108 102.902 144.330211105 C 110.5052 144.297998513 111.35 151.458211105 111.35 158.058211105" fill="none" stroke="#000000" stroke-width="1.5" stroke-linecap="round" stroke-linejoin="round"/>
<path class="surface-outline" d="M 164.15 25.35 C 164.15 31.95 164.9948 39.264340318 172.598 39.2751401143 C 196.032666667 39.3084273653 219.467333333 39.3084273653 242.902 39.2751401143 C 250.5052 39.264340318 251.35 31.95 251.35 25.35" fill="none" stroke="#000000" stroke-width="1.5" stroke-linecap="round" stroke-linejoin="round"/>
<path class="surface-outline" d="M 164.15 158.058211105 C 164.15 151.458211105 164.9948 144.143870787 172.598 144.133070991 C 196.032666667 144.09978374 219.467333333 144.09978374 242.902 144.133070991 C 250.5052 144.143870787 251.35 151.458211105 251.35 158.058211105" fill="none" stroke="#000000" stroke-width="1.5" stroke-linecap="round" stroke-linejoin="round"/>
<path class="surface-outline" d="M 304.15 25.35 C 304.15 31.95 304.9948 39.1102125923 312.598 39.078 C 324.315333333 39.0283569969 336.032666667 38.9703921811 347.75 38.9041055525" fill="none" stroke="#000000" stroke-width="1.5" stroke-linecap="round" stroke-linejoin="round"/>
<path class="surface-outline" d="M 304.15 158.058211105 C 304.15 151.458211105 304.9948 144.297998513 312.598 144.330211105 C 324.315333333 144.379854108 336.032666667 144.437818924 347.75 144.504105553" fill="none" stroke="#000000" stroke-width="1.5" stroke-linecap="round" stroke-linejoin="round"/>
<path class="surface-outline" d="M 396.75 91.7041055525 C 396.75 62.9041055525 375.75 38.9041055525 347.75 38.9041055525" fill="none" stroke="#000000" stroke-width="1.5" stroke-linecap="round" stroke-linejoin="round"/>
<path class="surface-outline" d="M 396.75 91.7041055525 C 396.75 120.504105553 375.75 144.504105553 347.75 144.504105553" fill="none" stroke="#000000" stroke-width="1.5" stroke-linecap="round" stroke-linejoin="round"/>
<path class="handle" d="M 95.75 89.0641055525 C 108.35 110.184105553 167.15 110.184105553 179.75 89.0641055525" fill="none" stroke="#000000" stroke-width="1.5" stroke-linecap="round" stroke-linejoin="round"/>
<path class="handle" d="M 101.14010045 95.0183615525 C 116.75 77.1841055525 158.75 77.1841055525 176.73279035 92.9148095525" fill="none" stroke="#000000" stroke-width="1.5" stroke-linecap="round" stroke-linejoin="round"/>
<path class="handle" d="M 235.75 89.0641055525 C 248.35 110.184105553 307.15 110.184105553 319.75 89.0641055525" fill="none" stroke="#000000" stroke-width="1.5" stroke-linecap="round" stroke-linejoin="round"/>
<path class="handle" d="M 241.14010045 95.0183615525 C 256.75 77.1841055525 298.75 77.1841055525 316.73279035 92.9148095525" fill="none" stroke="#000000" stroke-width="1.5" stroke-linecap="round" stroke-linejoin="round"/>
<path class="type-ii-boundary" d="M 111.35 25.35 C 111.35 21.7049206511 123.169682604 18.75 137.75 18.75 C 152.330317396 18.75 164.15 21.7049206511 164.15 25.35" fill="none" stroke="#000000" stroke-width="1.5" stroke-linecap="round" stroke-linejoin="round"/>
<path class="type-ii-boundary" d="M 111.35 25.35 C 111.35 28.9950793489 123.169682604 31.95 137.75 31.95 C 152.330317396 31.95 164.15 28.9950793489 164.15 25.35" fill="none" stroke="#000000" stroke-width="1.05" stroke-linecap="round" stroke-linejoin="round" stroke-dasharray="3 3"/>
<path class="type-ii-boundary" d="M 111.35 158.058211105 C 111.35 161.703290454 123.169682604 164.658211105 137.75 164.658211105 C 152.330317396 164.658211105 164.15 161.703290454 164.15 158.058211105" fill="none" stroke="#000000" stroke-width="1.5" stroke-linecap="round" stroke-linejoin="round"/>
<path class="type-ii-boundary" d="M 111.35 158.058211105 C 111.35 154.413131756 123.169682604 151.458211105 137.75 151.458211105 C 152.330317396 151.458211105 164.15 154.413131756 164.15 158.058211105" fill="none" stroke="#000000" stroke-width="1.5" stroke-linecap="round" stroke-linejoin="round"/>
<path class="type-ii-boundary" d="M 251.35 25.35 C 251.35 21.7049206511 263.169682604 18.75 277.75 18.75 C 292.330317396 18.75 304.15 21.7049206511 304.15 25.35" fill="none" stroke="#000000" stroke-width="1.5" stroke-linecap="round" stroke-linejoin="round"/>
<path class="type-ii-boundary" d="M 251.35 25.35 C 251.35 28.9950793489 263.169682604 31.95 277.75 31.95 C 292.330317396 31.95 304.15 28.9950793489 304.15 25.35" fill="none" stroke="#000000" stroke-width="1.05" stroke-linecap="round" stroke-linejoin="round" stroke-dasharray="3 3"/>
<path class="type-ii-boundary" d="M 251.35 158.058211105 C 251.35 161.703290454 263.169682604 164.658211105 277.75 164.658211105 C 292.330317396 164.658211105 304.15 161.703290454 304.15 158.058211105" fill="none" stroke="#000000" stroke-width="1.5" stroke-linecap="round" stroke-linejoin="round"/>
<path class="type-ii-boundary" d="M 251.35 158.058211105 C 251.35 154.413131756 263.169682604 151.458211105 277.75 151.458211105 C 292.330317396 151.458211105 304.15 154.413131756 304.15 158.058211105" fill="none" stroke="#000000" stroke-width="1.5" stroke-linecap="round" stroke-linejoin="round"/>
</svg>
