<svg xmlns="http://www.w3.org/2000/svg" viewBox="0 0 224.5 137.5" width="224.5" height="137.5" role="img">
<title>Planar surface</title>
<path class="surface-outline" d="M 18.75 68.75 C 18.75 44.75 35.25 24.75 57.25 24.75" fill="none" stroke="#000000" stroke-width="1.5" stroke-linecap="round" stroke-linejoin="round"/>
<path class="surface-outline" d="M 18.75 68.75 C 18.75 92.75 35.25 112.75 57.25 112.75" fill="none" stroke="#000000" stroke-width="1.5" stroke-linecap="round" stroke-linejoin="round"/>
<path class="surface-outline" d="M 57.25 24.75 C 93.9166666667 25.19 130.583333333 25.19 167.25 24.75" fill="none" stroke="#000000" stroke-width="1.5" stroke-linecap="round" stroke-linejoin="round"/>
<path class="surface-outline" d="M 57.25 112.75 C 93.9166666667 112.31 130.583333333 112.31 167.25 112.75" fill="none" stroke="#000000" stroke-width="1.5" stroke-linecap="round" stroke-linejoin="round"/>
<path class="surface-outline" d="M 205.75 68.75 C 205.75 44.75 189.25 24.75 167.25 24.75" fill="none" stroke="#000000" stroke-width="1.5" stroke-linecap="round" stroke-linejoin="round"/>
<path class="surface-outline" d="M 205.75 68.75 C 205.75 92.75 189.25 112.75 167.25 112.75" fill="none" stroke="#000000" stroke-width="1.5" stroke-linecap="round" stroke-linejoin="round"/>
<path class="handle" d="M 79.25 70.95 C 89.15 53.35 135.35 53.35 145.25 70.95" fill="none" stroke="#000000" stroke-width="1.5" stroke-linecap="round" stroke-linejoin="round"/>
<path class="handle" d="M 83.485078925 65.98812 C 95.75 80.85 128.75 80.85 142.879335275 67.74108" fill="none" stroke="#000000" stroke-width="1.5" stroke-linecap="round" stroke-linejoin="round"/>
<path class="surface-route" d="M 82.162782502 78.5677912324 L 82.7896408697 77.6072536394 L 83.4635167401 76.6315422918 L 83.6124295313 76.4272130693 L 83.8148345748 76.2097004539 L 84.4872858761 75.825003645 L 86.3145721217 74.500743821 L 89.0349359664 72.2241124209 L 89.3312529622 71.7217026467 L 89.3597169876 71.1166354131" fill="none" stroke="#ff00d4" stroke-width="2" stroke-linecap="round" stroke-linejoin="round"/>
<path class="surface-route" d="M 89.3597169876 71.1166354131 L 89.5094033445 72.7236955779 L 89.3177025848 76.4770140096 L 88.5966241437 82.2259111254 L 88.1053831605 88.635683762 L 88.0131960004 92.9562470044 L 88.0434709644 101.36511676 L 88.0302026968 102.359914987 L 88.0253458072 102.784330934 L 88.0440212849 103.79504471 L 88.1676742682 112.48326819" fill="none" stroke="#ff00d4" stroke-width="2" stroke-linecap="round" stroke-linejoin="round" stroke-dasharray="3 3"/>
<path class="surface-route" d="M 88.1676742682 112.48326819 L 87.0773803098 106.002260554 L 85.6116973045 96.1263548619 L 84.5758445936 89.9006494322 L 83.3419443646 83.3755771548 L 82.957704476 80.896104685 L 82.6209788422 79.9672650318 L 82.3753573408 79.2736478088 L 82.162782502 78.5677912324" fill="none" stroke="#ff00d4" stroke-width="2" stroke-linecap="round" stroke-linejoin="round"/>
</svg>
